<svg width="41" height="39" viewBox="0 0 41 39" fill="none"
  xmlns="http://www.w3.org/2000/svg">
  <path class="dark:fill-white" d="M8.63 14.855a1.485 1.485 0 0 0 1.486-1.486 10.399 10.399 0 0 1 20.797 0 1.484 1.484 0 0 0 2.971 0 13.37 13.37 0 1 0-26.739 0 1.485 1.485 0 0 0 1.486 1.486Z" fill="#1A1E2C"/>
  <path class="dark:fill-white" d="M39.53 17.826H26.451a7.388 7.388 0 0 0 1.49-4.457 7.428 7.428 0 0 0-14.856 0 1.485 1.485 0 1 0 2.972 0 4.457 4.457 0 1 1 4.456 4.457H1.5a1.484 1.484 0 1 0 0 2.97h38.03a1.485 1.485 0 0 0 0-2.97Z" fill="#0346F2"/>
  <path class="dark:fill-white" d="M32.37 23.942a1.485 1.485 0 0 0-1.486 1.485 10.399 10.399 0 0 1-20.797 0 1.485 1.485 0 0 0-2.971 0 13.37 13.37 0 0 0 26.739 0 1.486 1.486 0 0 0-1.486-1.485Z" fill="#1A1E2C"/>
  <path class="dark:fill-white" d="M1.47 20.971h13.078a7.388 7.388 0 0 0-1.49 4.456 7.428 7.428 0 0 0 14.855 0 1.486 1.486 0 1 0-2.97 0 4.456 4.456 0 1 1-4.457-4.456H39.5a1.486 1.486 0 1 0 0-2.97H1.47a1.485 1.485 0 0 0 0 2.97Z" fill="#0346F2"/>
</svg>
